<svg fill="none" height="2" viewBox="0 0 33 34" width="2" xmlns="http://www.w3.org/2000/svg">
    <path
        d="M16.6267 1.18998L16.624 1.19123C16.4249 1.28554 16.2816 1.42747 16.1653 1.65669C16.0585 1.86709 15.97 2.1602 15.8691 2.56734M16.6267 1.18998L16.1602 2.63979M16.6267 1.18998C16.7898 1.1147 17.0658 1.03082 17.3551 0.958063C17.65 0.883877 17.9827 0.815372 18.2707 0.775217C19.9091 0.536227 21.8401 0.875425 23.3307 1.67119C24.7258 2.40863 25.9223 3.56299 26.7437 4.95355L26.7441 4.9542C27.1496 5.64467 27.4746 6.53881 27.6584 7.34652C27.7505 7.75135 27.809 8.14271 27.8227 8.483C27.8359 8.81274 27.8091 9.13416 27.6975 9.37201L27.6968 9.37352C27.5676 9.64485 27.3931 9.8473 27.0944 9.98861C26.8207 10.1181 26.4542 10.19 25.9596 10.2527C25.7235 10.2839 25.5071 10.3134 25.3482 10.3358C25.3303 10.3383 25.3133 10.3408 25.297 10.3431C25.2955 10.3538 25.2938 10.3649 25.2922 10.3763C25.2707 10.524 25.2431 10.7257 25.2155 10.9466C25.1563 11.4236 25.0938 11.7709 24.9869 12.035C24.8714 12.3203 24.708 12.501 24.4802 12.6557L24.4802 12.6557L24.4781 12.6572C24.3468 12.7447 24.2244 12.8097 24.0668 12.8443C23.9219 12.8761 23.7629 12.8782 23.5704 12.8748C23.2862 12.8744 22.8074 12.8154 22.4889 12.7503L22.4888 12.7502C19.2109 12.0788 16.7269 9.68572 15.8768 6.40051M16.6267 1.18998L16.1672 6.32535M15.8691 2.56734C15.8691 2.56743 15.8691 2.56753 15.8691 2.56762L16.1602 2.63979M15.8691 2.56734C15.8691 2.56724 15.8692 2.56714 15.8692 2.56703L16.1602 2.63979M15.8691 2.56734C15.728 3.13186 15.7 3.43917 15.7 4.47909V4.48108C15.707 5.53836 15.7278 5.82683 15.8768 6.40051M16.1602 2.63979C16.0279 3.16929 16 3.44797 16 4.47909C16.007 5.53111 16.0279 5.78889 16.1672 6.32535M15.8768 6.40051L16.1672 6.32535M15.8768 6.40051C15.8768 6.4006 15.8768 6.40068 15.8768 6.40077L16.1672 6.32535M23.7055 9.51625L23.4189 9.42755C23.5308 9.06609 23.7957 8.73298 24.1255 8.56679C24.1787 8.53903 24.2457 8.51954 24.2925 8.5067C24.3517 8.49046 24.4237 8.47334 24.5026 8.45612C24.661 8.42156 24.8581 8.38415 25.0586 8.3497C25.3111 8.30633 25.5862 8.26463 25.8003 8.24068C25.7986 8.22868 25.7967 8.21613 25.7946 8.20302C25.7614 7.99419 25.6933 7.6967 25.5978 7.36254C24.9722 5.19319 23.2072 3.47562 21.0195 2.92371C20.0087 2.66936 18.7876 2.6525 17.94 2.88023C17.8943 2.89311 17.8672 2.9012 17.8499 2.90702C17.8469 2.91614 17.8432 2.92857 17.8389 2.94511C17.8242 3.00142 17.8086 3.0791 17.7855 3.19856L17.7855 3.19857L17.7847 3.20238C17.7147 3.53945 17.6848 4.05179 17.6968 4.58117C17.7088 5.10936 17.7617 5.62473 17.8449 5.96782C18.4119 8.22751 20.2001 10.0778 22.3894 10.6616L22.3894 10.6616L22.3911 10.662C22.7576 10.762 23.0289 10.8195 23.2052 10.8412C23.2215 10.6672 23.2484 10.4464 23.2768 10.2393C23.3002 10.0686 23.3257 9.89874 23.3496 9.75812C23.3719 9.62634 23.3965 9.49745 23.4199 9.42445L23.7055 9.51625ZM23.7055 9.51625C23.6428 9.71133 23.4896 10.833 23.4896 11.0908C23.4896 11.2023 23.0785 11.1605 22.3121 10.9515L25.8862 7.27983C26.0813 7.9626 26.1719 8.51997 26.0813 8.51997C25.7608 8.51997 24.4162 8.74988 24.2629 8.83348C24.0121 8.95889 23.7961 9.22364 23.7055 9.51625Z"
        fill="#907A7A" stroke="#907A7A" stroke-width="0.6" />
    <path
        d="M2.76446 21.6285C2.76077 21.6594 2.75702 21.6879 2.75368 21.7132L2.75282 21.7197C2.75116 21.7323 2.74964 21.7438 2.74825 21.7545C2.77546 21.7598 2.81092 21.7658 2.85672 21.7723C2.96068 21.7871 3.09274 21.8018 3.2668 21.8211C3.33038 21.8282 3.39957 21.8359 3.47503 21.8444C3.89089 21.8895 4.18749 21.9357 4.42084 22.024C4.67386 22.1197 4.8373 22.2584 5.00342 22.4443L5.00343 22.4443L5.00549 22.4467C5.14326 22.6041 5.24101 22.7349 5.30888 22.9868C5.36743 23.2041 5.40633 23.5218 5.46774 24.0507L5.5244 24.5083L5.63754 24.5043C6.00311 24.4853 6.51172 24.3564 7.06003 24.1437C7.60526 23.9322 8.16843 23.646 8.63888 23.3291C9.5568 22.7082 10.5789 21.4457 11.0242 20.3893C11.501 19.2476 11.686 18.0524 11.5533 16.9245L11.553 16.9214C11.5109 16.5291 11.4434 16.1164 11.4106 16.0072L11.4106 16.0072L11.4095 16.0034C11.3922 15.9427 11.3816 15.9276 11.3792 15.9245C11.3786 15.9237 11.3774 15.9222 11.3732 15.919C11.3682 15.9154 11.3573 15.9083 11.336 15.899C11.2308 15.8532 11.0281 15.8125 10.5761 15.7443C10.1251 15.685 9.28824 15.6717 8.8051 15.7245C8.35133 15.7765 7.42636 16.0319 6.87076 16.2729L6.86998 16.2732C4.71351 17.2012 3.04366 19.384 2.76446 21.6285ZM2.76446 21.6285C2.76449 21.6282 2.76452 21.628 2.76455 21.6278L2.46667 21.5922M2.76446 21.6285C2.76443 21.6287 2.76441 21.6289 2.76438 21.6292L2.46667 21.5922M2.46667 21.5922C2.44549 21.7696 2.42129 21.8735 2.46021 21.9411C2.52372 22.0513 2.75525 22.0648 3.44205 22.1426L6.75139 15.9977C4.50104 16.9661 2.75928 19.2373 2.46667 21.5922ZM5.63348 14.6223L5.63389 14.6221L8.66732 14.026L8.62139 13.7295C8.62161 13.7295 8.62183 13.7295 8.62206 13.7294C8.90621 13.6856 9.51596 13.6955 10.0993 13.7282C10.6885 13.7613 11.3121 13.8213 11.6318 13.8936L11.632 13.8937C11.9147 13.9579 12.1468 14.0139 12.3342 14.0767C12.5229 14.14 12.6872 14.2167 12.8241 14.333C13.1007 14.5681 13.1955 14.9118 13.3053 15.3375L13.3057 15.3394C14.0828 18.4332 13.2694 21.5567 11.0991 23.8136L11.0989 23.8138C9.58153 25.3887 7.7905 26.2846 5.63152 26.5439C5.26584 26.59 4.97019 26.6016 4.7087 26.5387C4.43409 26.4727 4.22683 26.3323 4.02236 26.1359C3.86147 25.9837 3.75555 25.8292 3.6788 25.5715C3.60944 25.3387 3.56166 25.0131 3.49972 24.521L3.49967 24.521L3.49909 24.5156C3.47516 24.2934 3.4479 24.0892 3.42438 23.9397C3.42068 23.9162 3.41713 23.8943 3.41373 23.8742C3.39844 23.8714 3.38213 23.8685 3.36486 23.8654C3.22649 23.8411 3.03793 23.8122 2.83254 23.7848C2.27882 23.7164 1.95601 23.674 1.74214 23.6168C1.62731 23.5861 1.53329 23.5488 1.4449 23.4963C1.36011 23.446 1.29035 23.3871 1.22537 23.3309L1.22535 23.331L1.22205 23.328C0.998191 23.1286 0.839247 22.9087 0.7595 22.6171C0.683099 22.3377 0.68683 22.018 0.733649 21.6326L0.733673 21.6324C0.928009 20.0418 1.52558 18.5434 2.46272 17.2818L2.46271 17.2818L2.46417 17.2799C3.22282 16.2756 4.51917 15.1867 5.63348 14.6223Z"
        fill="#907A7A" stroke="#907A7A" stroke-width="0.6" />
    <path
        d="M32.5534 27.92C32.5534 27.9199 32.5534 27.9197 32.5534 27.9196L32.2556 27.9561C32.0675 26.3885 31.5589 24.9533 30.7089 23.6087C30.3606 23.0583 30.1516 22.8911 29.8102 22.8911C29.4618 22.8911 29.1971 23.121 29.1414 23.4624C29.1065 23.6853 29.1483 23.7898 29.4479 24.2636C30.1167 25.3017 30.5208 26.284 30.7507 27.4336C30.904 28.1651 30.8971 28.4647 30.7438 28.4647C30.3536 28.4787 28.6328 28.7364 28.4865 28.8131C28.2078 28.9594 27.8734 29.3147 27.8037 29.5376M32.5534 27.92C32.36 26.3083 31.8363 24.8307 30.9625 23.4484L30.9624 23.4483C30.7856 23.1688 30.6242 22.9529 30.4442 22.8091C30.2473 22.6519 30.0419 22.5911 29.8102 22.5911C29.3123 22.5911 28.9243 22.93 28.8453 23.4141L28.845 23.4161C28.8215 23.5665 28.8226 23.7035 28.8892 23.8766C28.9454 24.0226 29.0482 24.1928 29.1944 24.4239L29.1957 24.4261C29.8453 25.4343 30.2344 26.3818 30.4566 27.4924L30.4571 27.4951C30.5257 27.8224 30.557 28.0412 30.5617 28.1772M32.5534 27.92C32.6031 28.3246 32.6141 28.6496 32.5498 28.9306C32.482 29.2265 32.337 29.4486 32.1264 29.6592C31.9446 29.841 31.7765 29.9625 31.4715 30.0506C31.1958 30.1301 30.7998 30.1848 30.1663 30.2605L30.1655 30.2606C29.8989 30.2918 29.6557 30.3228 29.4782 30.3477C29.4487 30.3518 29.4211 30.3558 29.3958 30.3595M32.5534 27.92L29.3958 30.3595M30.5617 28.1772C30.6305 28.1708 30.6888 28.1665 30.7331 28.1649L30.7331 28.1647H30.7438C30.7403 28.1647 30.7368 28.1648 30.7331 28.165C30.7026 28.1668 30.6651 28.1763 30.629 28.2001C30.5903 28.2257 30.5709 28.2561 30.5629 28.272C30.5591 28.2797 30.5577 28.2842 30.5575 28.2842C30.5572 28.2841 30.5618 28.2665 30.5622 28.2203C30.5624 28.207 30.5622 28.1926 30.5617 28.1772ZM30.5617 28.1772C30.2954 28.202 29.8703 28.2591 29.4785 28.3188C29.228 28.357 28.9834 28.3974 28.7909 28.4334C28.695 28.4513 28.6093 28.4687 28.5414 28.4845C28.5075 28.4924 28.4753 28.5006 28.447 28.5089C28.4244 28.5155 28.3845 28.5278 28.3473 28.5473L28.347 28.5475C28.1696 28.6406 27.9905 28.79 27.8483 28.9409C27.7131 29.0845 27.5753 29.2674 27.5189 29.4434M27.5189 29.4434C27.5195 29.4415 27.5202 29.4396 27.5208 29.4378L27.8037 29.5376M27.5189 29.4434C27.5184 29.445 27.5178 29.4466 27.5174 29.4482L27.8037 29.5376M27.5189 29.4434C27.5004 29.4977 27.4848 29.5726 27.4717 29.6433C27.4567 29.7236 27.4406 29.8225 27.4242 29.9323C27.3914 30.1523 27.3562 30.4238 27.3246 30.6942C27.2934 30.9613 27.2622 31.2123 27.2372 31.4011C27.2316 31.4432 27.2264 31.4821 27.2215 31.5171C27.17 31.5137 27.1083 31.5078 27.0367 31.499C26.7703 31.466 26.4083 31.3972 26.0309 31.3021C22.8718 30.5021 20.4018 27.8376 19.8365 24.624C19.7099 23.8627 19.7099 22.4286 19.8365 21.667C19.8402 21.6457 19.8439 21.625 19.8475 21.6049C19.8841 21.3987 19.9097 21.2546 19.9362 21.145C19.9658 21.0228 19.9882 20.9838 19.9985 20.9702C19.9986 20.9701 19.9988 20.9699 19.9989 20.9697C20.0017 20.9659 20.0111 20.9529 20.0703 20.9318C20.1381 20.9078 20.229 20.887 20.381 20.8522C20.3945 20.8491 20.4083 20.8459 20.4227 20.8427C20.8312 20.7494 21.4954 20.7022 22.1886 20.7073C22.8803 20.7125 23.5665 20.7695 24.0172 20.8707C24.224 20.9178 24.4305 20.9545 24.6017 20.9759C24.6871 20.9866 24.7675 20.9939 24.8367 20.9964C24.8955 20.9985 24.9788 20.9989 25.0519 20.9795M27.8037 29.5376L24.9751 20.6895M25.0519 20.9795C25.052 20.9795 25.0522 20.9794 25.0524 20.9794L24.9751 20.6895M25.0519 20.9795C25.0517 20.9796 25.0516 20.9796 25.0514 20.9796L24.9751 20.6895M25.0519 20.9795C25.4817 20.8662 25.7279 20.4392 25.7279 19.9998C25.7279 19.8398 25.7001 19.6776 25.6136 19.5268C25.5269 19.3755 25.3967 19.2627 25.2381 19.1748C24.9378 19.0084 24.4782 18.9016 23.8387 18.7979C23.4274 18.7312 22.7581 18.7 22.1169 18.7C21.478 18.7 20.8287 18.731 20.4614 18.7991M24.9751 20.6895C25.2398 20.6198 25.4279 20.3412 25.4279 19.9998C25.4279 19.4982 25.0796 19.3031 23.7907 19.0941C23.0173 18.9687 21.192 18.9687 20.5162 19.0941M20.4614 18.7991C20.4616 18.7991 20.4618 18.799 20.4619 18.799L20.5162 19.0941M20.4614 18.7991L20.5162 19.0941M20.4614 18.7991C19.8486 18.9118 19.1079 19.1042 18.7873 19.234L18.7849 19.235C18.568 19.3249 18.4177 19.4691 18.2986 19.7085C18.1913 19.9241 18.1027 20.2305 17.9957 20.6586L17.9951 20.6611L17.9951 20.6611C17.0125 24.7419 18.5266 28.9601 21.8963 31.4981L21.8968 31.4985C22.7582 32.1445 23.9088 32.7452 24.9166 33.0694C25.2795 33.1902 25.8053 33.3148 26.2944 33.4089C26.778 33.502 27.2598 33.572 27.525 33.572C28.1219 33.572 28.7389 33.2253 29.0108 32.699L29.0126 32.6955L29.0126 32.6955C29.0434 32.6339 29.0664 32.5427 29.0831 32.4708C29.1031 32.3852 29.1248 32.2773 29.1466 32.1554C29.1904 31.9115 29.2366 31.6025 29.2721 31.2864M20.5162 19.0941L29.2723 31.285C29.2722 31.2855 29.2722 31.286 29.2721 31.2864M29.2721 31.2864C29.3101 30.9755 29.3481 30.6924 29.3774 30.4865C29.384 30.4398 29.3902 30.3973 29.3958 30.3595M29.2721 31.2864L29.3958 30.3595"
        fill="#907A7A" stroke="#907A7A" stroke-width="0.6" />
    <path
        d="M28.743 23.6998L28.7403 23.6998C28.322 23.6953 27.9939 23.4656 27.8567 23.138C27.7189 22.8092 27.7873 22.4147 28.0855 22.1165C28.2341 21.9679 28.4002 21.8555 28.5987 21.8206C28.7992 21.7854 28.9915 21.8364 29.1773 21.9314L29.1773 21.9314L29.1784 21.9319C29.6058 22.153 29.7228 22.6078 29.6321 22.9789C29.5411 23.3506 29.2269 23.6998 28.743 23.6998Z"
        fill="#907A7A" stroke="#907A7A" stroke-width="0.5" />
</svg>
